<mxfile host="Electron" agent="Mozilla/5.0 (Windows NT 10.0; Win64; x64) AppleWebKit/537.36 (KHTML, like Gecko) draw.io/24.7.17 Chrome/128.0.6613.36 Electron/32.0.1 Safari/537.36" version="24.7.17">
  <diagram name="Страница — 1" id="D2lgxpnrkj3UGHz27mXb">
    <mxGraphModel dx="446" dy="266" grid="0" gridSize="10" guides="1" tooltips="1" connect="1" arrows="1" fold="1" page="1" pageScale="1" pageWidth="827" pageHeight="1169" math="0" shadow="0">
      <root>
        <mxCell id="0" />
        <mxCell id="1" parent="0" />
        <mxCell id="ANfgtht4ooJcLJh77Z2y-6" value="" style="group" parent="1" vertex="1" connectable="0">
          <mxGeometry x="40" y="40" width="206" height="131" as="geometry" />
        </mxCell>
        <mxCell id="ANfgtht4ooJcLJh77Z2y-1" value="MainLayout" style="rounded=0;whiteSpace=wrap;html=1;labelPosition=center;verticalLabelPosition=top;align=center;verticalAlign=bottom;" parent="ANfgtht4ooJcLJh77Z2y-6" vertex="1">
          <mxGeometry width="190" height="130" as="geometry" />
        </mxCell>
        <mxCell id="ANfgtht4ooJcLJh77Z2y-2" value="Основной макет приложения&lt;div style=&quot;font-size: 10px;&quot;&gt;файл layout.tsx(в корне папки app)&lt;/div&gt;" style="text;html=1;align=center;verticalAlign=middle;resizable=0;points=[];autosize=1;strokeColor=#006EAF;fillColor=#1ba1e2;fontSize=10;fontColor=#ffffff;opacity=20;rounded=0;sketch=1;curveFitting=1;jiggle=2;" parent="ANfgtht4ooJcLJh77Z2y-6" vertex="1">
          <mxGeometry x="5" y="8" width="180" height="40" as="geometry" />
        </mxCell>
        <mxCell id="ANfgtht4ooJcLJh77Z2y-3" value="&lt;font style=&quot;font-size: 8px;&quot;&gt;рендерит как &lt;font color=&quot;#ff00ff&quot;&gt;{&lt;/font&gt;&lt;font color=&quot;#ff9933&quot;&gt;children&lt;/font&gt;&lt;font color=&quot;#ff00ff&quot;&gt;}&lt;/font&gt; вложенные в него&lt;/font&gt;&lt;div style=&quot;font-size: 8px;&quot;&gt;&lt;font style=&quot;font-size: 8px;&quot;&gt;шаблоны приложения.&amp;nbsp;&lt;/font&gt;&lt;/div&gt;&lt;div style=&quot;font-size: 8px;&quot;&gt;&lt;font style=&quot;font-size: 8px;&quot;&gt;шаблоны из подпапок(роутов):&lt;/font&gt;&lt;/div&gt;&lt;div style=&quot;font-size: 8px;&quot;&gt;&lt;ul style=&quot;font-size: 8px;&quot;&gt;&lt;li style=&quot;font-size: 8px;&quot;&gt;&lt;font style=&quot;font-size: 8px;&quot;&gt;(root),&amp;nbsp;&lt;/font&gt;&lt;/li&gt;&lt;li style=&quot;font-size: 8px;&quot;&gt;&lt;font style=&quot;font-size: 8px;&quot;&gt;(dashboard),&amp;nbsp;&lt;/font&gt;&lt;/li&gt;&lt;li style=&quot;font-size: 8px;&quot;&gt;&lt;font style=&quot;font-size: 8px;&quot;&gt;(checkout)&lt;/font&gt;&lt;/li&gt;&lt;/ul&gt;&lt;/div&gt;" style="text;html=1;align=left;verticalAlign=middle;resizable=0;points=[];autosize=1;strokeColor=none;fillColor=none;fontSize=8;spacing=0;" parent="ANfgtht4ooJcLJh77Z2y-6" vertex="1">
          <mxGeometry x="5" y="49" width="167" height="82" as="geometry" />
        </mxCell>
        <mxCell id="ANfgtht4ooJcLJh77Z2y-9" value="&lt;font style=&quot;font-size: 5px;&quot;&gt;( name )... скобки делают группы, а не роуты&lt;/font&gt;" style="text;html=1;align=center;verticalAlign=middle;resizable=0;points=[];autosize=1;strokeColor=none;fillColor=none;fontFamily=Helvetica;fontSize=5;fontColor=#FFFF00;labelBackgroundColor=default;spacing=0;textOpacity=60;" parent="ANfgtht4ooJcLJh77Z2y-6" vertex="1">
          <mxGeometry x="4" y="78" width="117" height="14" as="geometry" />
        </mxCell>
        <mxCell id="ANfgtht4ooJcLJh77Z2y-8" style="edgeStyle=orthogonalEdgeStyle;rounded=1;orthogonalLoop=1;jettySize=auto;html=1;exitX=0.25;exitY=1;exitDx=0;exitDy=0;entryX=0;entryY=0.5;entryDx=0;entryDy=0;curved=0;startArrow=oval;startFill=1;endArrow=oval;endFill=1;" parent="1" source="ANfgtht4ooJcLJh77Z2y-1" target="ANfgtht4ooJcLJh77Z2y-4" edge="1">
          <mxGeometry relative="1" as="geometry" />
        </mxCell>
        <mxCell id="ZtDMNyyxCgzk0jECYf4b-25" value="" style="group" parent="1" vertex="1" connectable="0">
          <mxGeometry x="130" y="200" width="265" height="120" as="geometry" />
        </mxCell>
        <mxCell id="ANfgtht4ooJcLJh77Z2y-4" value="RootLayout" style="rounded=0;whiteSpace=wrap;html=1;labelPosition=center;verticalLabelPosition=middle;align=center;verticalAlign=top;container=0;" parent="ZtDMNyyxCgzk0jECYf4b-25" vertex="1">
          <mxGeometry width="265" height="120" as="geometry" />
        </mxCell>
        <mxCell id="ANfgtht4ooJcLJh77Z2y-5" value="корневой макет всего&amp;nbsp;&lt;div style=&quot;font-size: 10px;&quot;&gt;что видит неавторизованный&amp;nbsp;&lt;/div&gt;&lt;div style=&quot;font-size: 10px;&quot;&gt;пользователь&lt;/div&gt;" style="text;html=1;align=center;verticalAlign=middle;resizable=0;points=[];autosize=1;strokeColor=default;fillColor=#FF9933;fontSize=10;rounded=0;sketch=1;curveFitting=1;jiggle=2;opacity=20;container=0;" parent="ZtDMNyyxCgzk0jECYf4b-25" vertex="1">
          <mxGeometry x="55.5" y="7.400000000000006" width="160" height="50" as="geometry" />
        </mxCell>
        <mxCell id="ANfgtht4ooJcLJh77Z2y-10" value="&lt;span style=&quot;font-size: 7px; text-align: left;&quot;&gt;&amp;nbsp;&lt;/span&gt;&lt;font style=&quot;font-size: 7px; text-align: left;&quot; color=&quot;#cc00cc&quot;&gt;{&lt;/font&gt;&lt;font color=&quot;#ff9933&quot; style=&quot;font-size: 7px; text-align: left;&quot;&gt;children&lt;/font&gt;&lt;font style=&quot;font-size: 7px; text-align: left;&quot; color=&quot;#cc00cc&quot;&gt;}&lt;/font&gt;" style="text;html=1;align=center;verticalAlign=middle;resizable=0;points=[];autosize=1;strokeColor=none;fillColor=none;fontFamily=Helvetica;fontSize=7;fontColor=default;labelBackgroundColor=none;spacing=0;spacingBottom=-1;spacingTop=-1;spacingLeft=-1;container=0;" parent="ZtDMNyyxCgzk0jECYf4b-25" vertex="1">
          <mxGeometry x="16" y="85" width="42" height="10" as="geometry" />
        </mxCell>
        <mxCell id="ANfgtht4ooJcLJh77Z2y-11" value="Любое динамические страницы/роуты" style="text;html=1;align=center;verticalAlign=middle;resizable=0;points=[];autosize=1;strokeColor=default;fillColor=none;fontFamily=Helvetica;fontSize=6;fontColor=default;labelBackgroundColor=default;spacing=0;dashed=1;opacity=40;textOpacity=40;spacingBottom=0;spacingTop=-1;container=0;" parent="ZtDMNyyxCgzk0jECYf4b-25" vertex="1">
          <mxGeometry x="60" y="85" width="121" height="10" as="geometry" />
        </mxCell>
        <mxCell id="ZtDMNyyxCgzk0jECYf4b-1" value="&amp;lt;Header /&amp;gt;" style="text;html=1;align=center;verticalAlign=middle;resizable=0;points=[];autosize=1;strokeColor=none;fillColor=none;fontSize=7;spacing=0;spacingBottom=-2;spacingTop=-1;spacingLeft=-2;spacingRight=-1;container=0;" parent="ZtDMNyyxCgzk0jECYf4b-25" vertex="1">
          <mxGeometry x="17" y="69" width="42" height="9" as="geometry" />
        </mxCell>
        <mxCell id="ZtDMNyyxCgzk0jECYf4b-6" value="Обязательное отображение компонента Header на всех страницах" style="text;html=1;align=center;verticalAlign=middle;resizable=0;points=[];autosize=1;strokeColor=default;fillColor=none;fontFamily=Helvetica;fontSize=6;fontColor=default;labelBackgroundColor=default;spacing=0;dashed=1;opacity=40;textOpacity=40;spacingBottom=0;spacingTop=-1;container=0;" parent="ZtDMNyyxCgzk0jECYf4b-25" vertex="1">
          <mxGeometry x="59" y="68" width="201" height="10" as="geometry" />
        </mxCell>
        <mxCell id="ZtDMNyyxCgzk0jECYf4b-3" value="&lt;span style=&quot;font-size: 7px; text-align: left;&quot;&gt;&amp;nbsp;&lt;/span&gt;&lt;font style=&quot;font-size: 7px; text-align: left;&quot; color=&quot;#cc00cc&quot;&gt;{&lt;/font&gt;&lt;font color=&quot;#ff9933&quot; style=&quot;font-size: 7px; text-align: left;&quot;&gt;modal&lt;/font&gt;&lt;font style=&quot;font-size: 7px; text-align: left;&quot; color=&quot;#cc00cc&quot;&gt;}&lt;/font&gt;" style="text;html=1;align=center;verticalAlign=middle;resizable=0;points=[];autosize=1;strokeColor=none;fillColor=none;fontFamily=Helvetica;fontSize=7;fontColor=default;labelBackgroundColor=none;spacing=0;spacingBottom=-1;spacingTop=-1;spacingLeft=-1;container=0;" parent="ZtDMNyyxCgzk0jECYf4b-25" vertex="1">
          <mxGeometry x="16" y="102" width="37" height="10" as="geometry" />
        </mxCell>
        <mxCell id="ZtDMNyyxCgzk0jECYf4b-4" value="Слот - перехватчик динамической страницы product/[id]" style="text;html=1;align=center;verticalAlign=middle;resizable=0;points=[];autosize=1;strokeColor=default;fillColor=none;fontFamily=Helvetica;fontSize=6;fontColor=default;labelBackgroundColor=default;spacing=0;dashed=1;opacity=40;textOpacity=40;spacingBottom=0;spacingTop=-1;container=0;" parent="ZtDMNyyxCgzk0jECYf4b-25" vertex="1">
          <mxGeometry x="60" y="102" width="169" height="10" as="geometry" />
        </mxCell>
        <mxCell id="ZtDMNyyxCgzk0jECYf4b-12" style="edgeStyle=orthogonalEdgeStyle;shape=connector;curved=0;rounded=1;orthogonalLoop=1;jettySize=auto;html=1;entryX=-0.003;entryY=0.433;entryDx=0;entryDy=0;entryPerimeter=0;strokeColor=default;align=center;verticalAlign=middle;fontFamily=Helvetica;fontSize=11;fontColor=default;labelBackgroundColor=default;startArrow=oval;startFill=1;endArrow=oval;endFill=1;endSize=3;startSize=3;" parent="1" source="ZtDMNyyxCgzk0jECYf4b-6" target="ZtDMNyyxCgzk0jECYf4b-10" edge="1">
          <mxGeometry relative="1" as="geometry" />
        </mxCell>
        <mxCell id="ZtDMNyyxCgzk0jECYf4b-10" value="&lt;font style=&quot;font-size: 10px;&quot;&gt;&amp;lt; Header /&amp;gt;&lt;/font&gt;" style="rounded=0;whiteSpace=wrap;html=1;labelPosition=center;verticalLabelPosition=middle;align=center;verticalAlign=top;collapsible=1;container=1;recursiveResize=1;recursiveResize=0;spacing=0;fontStyle=4" parent="1" vertex="1">
          <mxGeometry x="491" y="116" width="270" height="246" as="geometry">
            <mxRectangle x="491" y="116" width="88" height="26" as="alternateBounds" />
          </mxGeometry>
        </mxCell>
        <mxCell id="_dbfFS-hX7f-A3bOK2qL-5" value="&lt;div&gt;1.&lt;/div&gt;так-как компонент &lt;u&gt;Header &lt;/u&gt;рендерится на всех страницах, то его используем для перехвата параметров из строки браузера которые появляются после удачной оплаты заказа или при успешной регистрации нового пользователя. С&lt;span style=&quot;background-color: initial;&quot;&gt;оответственно значения &lt;/span&gt;&lt;font style=&quot;background-color: initial;&quot; color=&quot;#3399ff&quot;&gt;?paid&lt;/font&gt;&lt;span style=&quot;background-color: initial;&quot;&gt; и &lt;/span&gt;&lt;font style=&quot;background-color: initial;&quot; color=&quot;#3399ff&quot;&gt;?verified.&lt;/font&gt;&lt;div style=&quot;font-size: 6px;&quot;&gt;&lt;font color=&quot;#ffffff&quot;&gt;&amp;nbsp;При рендере этого компонента, в зависимости от наличия/отсутствия любого из этих параметров будет вызываться &quot;тостер&quot; с одним из оповещений сформированных в зависимости от значеня в строке браузера&lt;/font&gt;&lt;/div&gt;" style="whiteSpace=wrap;html=1;fontSize=6;rounded=1;opacity=30;verticalAlign=top;spacing=0;" vertex="1" parent="ZtDMNyyxCgzk0jECYf4b-10">
          <mxGeometry x="3" y="23" width="264" height="56" as="geometry" />
        </mxCell>
        <mxCell id="_dbfFS-hX7f-A3bOK2qL-6" value="&lt;div&gt;2.&lt;/div&gt;создаётся состояние&amp;nbsp;openAuthModal отслеживаемое функцией&amp;nbsp;setOpenAuthModal(с начальным значением false).&lt;div&gt;значение этого стейта (false/true) будет передано в компонент &amp;lt;AuthModal /&amp;gt;&lt;/div&gt;" style="whiteSpace=wrap;html=1;fontSize=6;rounded=1;opacity=30;strokeColor=#33FF33;spacing=0;" vertex="1" parent="ZtDMNyyxCgzk0jECYf4b-10">
          <mxGeometry x="3" y="85" width="264" height="37" as="geometry" />
        </mxCell>
        <mxCell id="_dbfFS-hX7f-A3bOK2qL-7" value="&lt;div&gt;3.&lt;/div&gt;Рендерятся компоненты" style="whiteSpace=wrap;html=1;fontSize=6;rounded=1;opacity=50;strokeColor=#FF9933;spacing=0;verticalAlign=top;" vertex="1" parent="ZtDMNyyxCgzk0jECYf4b-10">
          <mxGeometry x="3" y="128" width="264" height="113" as="geometry" />
        </mxCell>
      </root>
    </mxGraphModel>
  </diagram>
</mxfile>
